<svg version="1.0" xmlns="http://www.w3.org/2000/svg"
 width="16" height="16" viewBox="0 0 349.000000 341.000000"
 preserveAspectRatio="xMidYMid meet">

<g transform="translate(0.000000,341.000000) scale(0.100000,-0.100000)"
fill="#000000" stroke="none">
<path d="M420 3382 c0 -4 -23 -16 -50 -26 -125 -45 -234 -146 -297 -275 -21
-42 -41 -77 -45 -79 -5 -2 -8 -567 -8 -1255 0 -1379 -2 -1319 62 -1440 61
-114 172 -211 288 -253 27 -10 50 -22 50 -26 0 -4 577 -8 1283 -8 1408 0 1343
-2 1469 61 130 66 247 220 277 367 13 64 16 2548 3 2554 -5 2 -26 39 -47 83
-47 99 -141 198 -233 244 -126 63 -61 61 -1469 61 -706 0 -1283 -4 -1283 -8z
m2630 -233 c80 -37 125 -81 162 -157 l33 -67 -2 -1222 -2 -1223 -24 -53 c-35
-76 -79 -122 -155 -159 l-67 -33 -1255 0 -1255 0 -67 33 c-76 37 -120 83 -155
159 l-24 53 -2 1222 -2 1223 26 55 c52 111 140 177 253 191 34 4 606 6 1271 5
l1210 -1 55 -26z"/>
<path d="M905 2886 c-65 -20 -98 -42 -142 -89 -90 -98 -95 -130 -91 -572 3
-308 6 -356 22 -398 25 -66 103 -149 168 -178 51 -23 64 -24 315 -27 295 -4
312 0 339 65 19 43 5 93 -33 123 -24 19 -40 20 -260 20 -251 0 -285 5 -317 51
-14 21 -16 66 -16 379 0 313 2 358 16 379 32 46 66 51 317 51 220 0 236 1 260
20 38 30 52 80 33 123 -26 63 -44 67 -323 66 -171 0 -260 -4 -288 -13z"/>
<path d="M2004 2881 c-18 -11 -37 -34 -43 -53 -11 -30 1 -76 156 -593 123
-412 173 -566 189 -582 42 -42 106 -42 148 0 16 16 66 170 190 583 166 554
168 561 153 597 -16 38 -59 67 -99 67 -13 0 -37 -9 -55 -20 -36 -22 -34 -16
-179 -502 -43 -147 -81 -268 -84 -268 -3 0 -41 121 -84 268 -145 486 -143 480
-179 502 -40 25 -73 25 -113 1z"/>
<path d="M530 1323 c-81 -30 -90 -157 -14 -192 36 -16 2416 -16 2447 0 33 18
37 28 37 95 0 110 138 99 -1249 101 -663 1 -1213 -1 -1221 -4z"/>
<path d="M524 866 c-42 -19 -64 -52 -64 -99 0 -31 7 -46 34 -73 l34 -34 1210
0 1209 0 27 21 c25 20 27 25 24 93 -5 117 124 106 -1258 106 -976 -1 -1191 -3
-1216 -14z"/>
</g>
</svg>
